<svg width="2379" height="1033" viewBox="0 0 2379 1033" fill="none" xmlns="http://www.w3.org/2000/svg">
<path d="M2378.48 516.032C2378.48 587.114 2345.28 654.872 2285.15 716.546C2225.02 778.222 2137.98 833.788 2030.39 880.463C1815.21 973.813 1517.91 1031.56 1189.49 1031.56C861.075 1031.56 563.772 973.813 348.593 880.463C241.003 833.788 153.966 778.222 93.8342 716.546C33.7045 654.872 0.5 587.114 0.5 516.032C0.5 444.95 33.7045 377.192 93.8342 315.518C153.966 253.842 241.003 198.276 348.593 151.601C563.772 58.2507 861.075 0.5 1189.49 0.5C1517.91 0.5 1815.21 58.2507 2030.39 151.601C2137.98 198.276 2225.02 253.842 2285.15 315.518C2345.28 377.192 2378.48 444.95 2378.48 516.032Z" stroke="url(#paint0_linear_26_385)"/>
<defs>
<linearGradient id="paint0_linear_26_385" x1="68.5829" y1="457.849" x2="2206.96" y2="770.618" gradientUnits="userSpaceOnUse">
<stop stop-color="#484848"/>
<stop offset="0.491388" stop-color="#484848" stop-opacity="0.36"/>
<stop offset="1" stop-color="#484848"/>
</linearGradient>
</defs>
</svg>
