<svg width="1725" height="749" viewBox="0 0 1725 749" fill="none" xmlns="http://www.w3.org/2000/svg">
<path d="M1724.25 374.119C1724.25 425.608 1700.19 474.699 1656.62 519.395C1613.04 564.092 1549.96 604.368 1471.96 638.203C1315.98 705.872 1100.46 747.739 862.373 747.739C624.287 747.739 408.764 705.872 252.782 638.203C174.79 604.368 111.706 564.092 68.1275 519.395C24.551 474.699 0.5 425.608 0.5 374.119C0.5 322.631 24.551 273.54 68.1275 228.844C111.706 184.146 174.79 143.871 252.782 110.036C408.764 42.3666 624.287 0.5 862.373 0.5C1100.46 0.5 1315.98 42.3666 1471.96 110.036C1549.96 143.871 1613.04 184.146 1656.62 228.844C1700.19 273.54 1724.25 322.631 1724.25 374.119Z" stroke="url(#paint0_linear_26_383)"/>
<defs>
<linearGradient id="paint0_linear_26_383" x1="49.7221" y1="331.937" x2="1600.03" y2="558.692" gradientUnits="userSpaceOnUse">
<stop stop-color="#484848"/>
<stop offset="0.491388" stop-color="#484848" stop-opacity="0.36"/>
<stop offset="1" stop-color="#484848"/>
</linearGradient>
</defs>
</svg>
