<svg width="1188" height="516" viewBox="0 0 1188 516" fill="none" xmlns="http://www.w3.org/2000/svg">
<path d="M1186.81 258.244C1186.81 293.629 1170.28 327.38 1140.31 358.123C1110.34 388.867 1066.94 416.578 1013.27 439.86C905.936 486.424 757.622 515.237 593.772 515.237C429.922 515.237 281.608 486.424 174.275 439.86C120.608 416.578 77.2086 388.867 47.2335 358.123C17.2606 327.38 0.732178 293.629 0.732178 258.244C0.732178 222.858 17.2606 189.108 47.2335 158.365C77.2086 127.62 120.608 99.9099 174.275 76.6276C281.608 30.0637 429.922 1.25098 593.772 1.25098C757.622 1.25098 905.936 30.0637 1013.27 76.6276C1066.94 99.9099 1110.34 127.62 1140.31 158.365C1170.28 189.108 1186.81 222.858 1186.81 258.244Z" stroke="url(#paint0_linear_26_319)"/>
<defs>
<linearGradient id="paint0_linear_26_319" x1="34.4541" y1="229.211" x2="1101.48" y2="385.279" gradientUnits="userSpaceOnUse">
<stop stop-color="#484848"/>
<stop offset="0.491388" stop-color="#484848" stop-opacity="0.36"/>
<stop offset="1" stop-color="#484848"/>
</linearGradient>
</defs>
</svg>
