<svg width="50" height="50" viewBox="0 0 50 50" fill="none" xmlns="http://www.w3.org/2000/svg">
<path fill-rule="evenodd" clip-rule="evenodd" d="M31.2222 8.40735C33.931 8.40735 36.2373 10.1392 37.0919 12.5555H18.7778C16.0274 12.5555 13.3896 13.6481 11.4448 15.5929C9.5 17.5377 8.40741 20.1755 8.40741 22.9259V32.9436C7.19392 32.5143 6.14339 31.7193 5.4005 30.6681C4.6576 29.6169 4.25889 28.3612 4.25926 27.074V14.6296C4.25926 12.9793 4.91481 11.3967 6.08171 10.2298C7.2486 9.0629 8.83124 8.40735 10.4815 8.40735H31.2222ZM39.5185 16.7036H18.7778C17.1275 16.7036 15.5449 17.3592 14.378 18.5261C13.2111 19.693 12.5556 21.2756 12.5556 22.9259V35.3703C12.5556 37.0205 13.2111 38.6032 14.378 39.7701C15.5449 40.937 17.1275 41.5925 18.7778 41.5925H39.5185C41.1688 41.5925 42.7514 40.937 43.9183 39.7701C45.0852 38.6032 45.7407 37.0205 45.7407 35.3703V22.9259C45.7407 21.2756 45.0852 19.693 43.9183 18.5261C42.7514 17.3592 41.1688 16.7036 39.5185 16.7036ZM33.2963 29.1481C33.2963 30.2482 32.8593 31.3033 32.0813 32.0813C31.3034 32.8592 30.2483 33.2962 29.1481 33.2962C28.048 33.2962 26.9929 32.8592 26.215 32.0813C25.437 31.3033 25 30.2482 25 29.1481C25 28.0479 25.437 26.9928 26.215 26.2149C26.9929 25.437 28.048 24.9999 29.1481 24.9999C30.2483 24.9999 31.3034 25.437 32.0813 26.2149C32.8593 26.9928 33.2963 28.0479 33.2963 29.1481V29.1481Z" fill="url(#paint0_linear_2_309)"/>
<defs>
<linearGradient id="paint0_linear_2_309" x1="11.821" y1="57.8394" x2="58.1833" y2="12.7122" gradientUnits="userSpaceOnUse">
<stop stop-color="#982DEC"/>
<stop offset="0.572917" stop-color="#DC8DF8"/>
<stop offset="0.895833" stop-color="#A9C4F3"/>
</linearGradient>
</defs>
</svg>
