<svg width="50" height="50" viewBox="0 0 50 50" fill="none" xmlns="http://www.w3.org/2000/svg">
<path d="M20.0221 12.5555C19.3621 12.5555 18.729 12.8177 18.2622 13.2845C17.7955 13.7512 17.5333 14.3843 17.5333 15.0444C17.5333 15.7045 17.7955 16.3375 18.2622 16.8043C18.729 17.271 19.3621 17.5333 20.0221 17.5333H33.9251L30.7069 20.7514C30.2536 21.2208 30.0027 21.8495 30.0084 22.5021C30.0141 23.1547 30.2758 23.7789 30.7373 24.2404C31.1987 24.7018 31.823 24.9636 32.4755 24.9692C33.1281 24.9749 33.7568 24.724 34.2262 24.2707L41.6929 16.804C42.1595 16.3373 42.4216 15.7043 42.4216 15.0444C42.4216 14.3844 42.1595 13.7515 41.6929 13.2847L34.2262 5.81806C33.9966 5.58034 33.722 5.39073 33.4184 5.26029C33.1147 5.12985 32.7881 5.06119 32.4576 5.05832C32.1272 5.05545 31.7994 5.11842 31.4936 5.24357C31.1877 5.36871 30.9098 5.55352 30.6761 5.78721C30.4424 6.02089 30.2576 6.29878 30.1325 6.60466C30.0073 6.91053 29.9443 7.23827 29.9472 7.56874C29.9501 7.89922 30.0187 8.22581 30.1492 8.52946C30.2796 8.83312 30.4692 9.10775 30.7069 9.33734L33.9251 12.5555H20.0221Z" fill="url(#paint0_linear_2_292)"/>
<path d="M29.9777 37.4444C30.6378 37.4444 31.2709 37.1821 31.7376 36.7154C32.2044 36.2486 32.4666 35.6156 32.4666 34.9555C32.4666 34.2954 32.2044 33.6623 31.7376 33.1956C31.2709 32.7288 30.6378 32.4666 29.9777 32.4666H16.0748L19.2929 29.2485C19.5306 29.0189 19.7202 28.7442 19.8507 28.4406C19.9811 28.1369 20.0498 27.8103 20.0527 27.4799C20.0555 27.1494 19.9925 26.8216 19.8674 26.5158C19.7423 26.2099 19.5575 25.932 19.3238 25.6983C19.0901 25.4646 18.8122 25.2798 18.5063 25.1547C18.2004 25.0295 17.8727 24.9666 17.5422 24.9694C17.2118 24.9723 16.8852 25.041 16.5815 25.1714C16.2779 25.3018 16.0032 25.4915 15.7736 25.7292L8.30696 33.1958C7.84037 33.6626 7.57825 34.2955 7.57825 34.9555C7.57825 35.6154 7.84037 36.2484 8.30696 36.7151L15.7736 44.1818C16.243 44.6352 16.8717 44.886 17.5243 44.8804C18.1769 44.8747 18.8011 44.6129 19.2626 44.1515C19.7241 43.69 19.9858 43.0658 19.9915 42.4132C19.9972 41.7606 19.7463 41.1319 19.2929 40.6625L16.0748 37.4444H29.9777Z" fill="url(#paint1_linear_2_292)"/>
<defs>
<linearGradient id="paint0_linear_2_292" x1="13.9299" y1="64.3767" x2="65.725" y2="29.0871" gradientUnits="userSpaceOnUse">
<stop stop-color="#982DEC"/>
<stop offset="0.572917" stop-color="#DC8DF8"/>
<stop offset="0.895833" stop-color="#A9C4F3"/>
</linearGradient>
<linearGradient id="paint1_linear_2_292" x1="13.9299" y1="64.3767" x2="65.725" y2="29.0871" gradientUnits="userSpaceOnUse">
<stop stop-color="#982DEC"/>
<stop offset="0.572917" stop-color="#DC8DF8"/>
<stop offset="0.895833" stop-color="#A9C4F3"/>
</linearGradient>
</defs>
</svg>
