<svg width="50" height="50" viewBox="0 0 50 50" fill="none" xmlns="http://www.w3.org/2000/svg">
<path d="M39.9333 15.6666V11.9333C39.9333 9.87435 38.2589 8.19995 36.2 8.19995H11.9333C8.84588 8.19995 6.33334 10.7125 6.33334 13.8V36.1999C6.33334 40.3085 9.68214 41.7999 11.9333 41.7999H39.9333C41.9923 41.7999 43.6667 40.1255 43.6667 38.0666V19.4C43.6667 17.341 41.9923 15.6666 39.9333 15.6666ZM36.2 32.4666H32.4667V25H36.2V32.4666ZM11.9333 15.6666C11.4527 15.6451 10.9989 15.4391 10.6664 15.0913C10.3339 14.7436 10.1483 14.2811 10.1483 13.8C10.1483 13.3188 10.3339 12.8563 10.6664 12.5086C10.9989 12.1608 11.4527 11.9548 11.9333 11.9333H36.2V15.6666H11.9333Z" fill="url(#paint0_linear_2_327)"/>
<defs>
<linearGradient id="paint0_linear_2_327" x1="13.1389" y1="58.2499" x2="59.6099" y2="18.0428" gradientUnits="userSpaceOnUse">
<stop stop-color="#982DEC"/>
<stop offset="0.572917" stop-color="#DC8DF8"/>
<stop offset="0.895833" stop-color="#A9C4F3"/>
</linearGradient>
</defs>
</svg>
